<svg version="1.1" id="Layer_1" xmlns="http://www.w3.org/2000/svg" xmlns:xlink="http://www.w3.org/1999/xlink" x="0px" y="0px"
	 width="100%" viewBox="0 0 424 323" enable-background="new 0 0 424 323" xml:space="preserve">
<path fill="#000000" opacity="1.000000" stroke="none" 
	d="
M262.000000,324.000000 
	C174.666672,324.000000 87.833336,324.000000 1.000000,324.000000 
	C1.000000,216.333328 1.000000,108.666664 1.000000,1.000000 
	C142.333328,1.000000 283.666656,1.000000 425.000000,1.000000 
	C425.000000,108.666664 425.000000,216.333328 425.000000,324.000000 
	C370.833344,324.000000 316.666656,324.000000 262.000000,324.000000 
M319.973267,103.015526 
	C318.530609,102.676971 317.092621,102.071663 315.644440,102.046165 
	C309.463837,101.937363 303.280212,101.999863 298.305878,101.999863 
	C296.882965,99.742447 296.017365,98.369164 295.046570,96.260330 
	C293.491852,92.169571 290.986328,89.223694 286.641113,87.622414 
	C284.907837,86.983673 283.244263,84.849953 282.535675,83.015610 
	C281.170319,79.481049 281.426361,75.022507 279.362854,72.116859 
	C274.984222,65.951218 273.336273,58.123646 267.102753,53.086205 
	C261.345673,48.433777 256.307709,42.872162 250.440582,38.380306 
	C243.739075,33.249687 234.042557,32.745132 228.984329,24.047886 
	C227.162643,23.365211 225.351669,22.127546 223.517487,22.092167 
	C213.476517,21.898489 203.429611,21.969072 193.385437,22.041624 
	C192.222565,22.050024 191.063828,22.632296 189.263641,23.186573 
	C184.325241,26.735296 179.496216,30.450966 174.414093,33.780296 
	C170.297745,36.476944 165.675278,38.416088 161.629868,41.203026 
	C150.418015,48.927002 142.961517,59.589924 138.345871,72.306145 
	C135.804932,79.306519 136.028046,87.456207 126.398560,90.732994 
	C123.029320,91.879501 121.581322,98.671928 118.644341,103.994560 
	C113.753159,103.994560 107.123672,103.925774 100.496521,104.020554 
	C96.569237,104.076721 93.191345,105.092941 92.294571,110.543228 
	C92.198982,117.004387 92.017517,123.465607 92.022568,129.926682 
	C92.045273,158.964798 92.120964,188.002884 92.081932,217.878677 
	C94.273407,230.325516 97.112709,242.378784 105.987122,252.269867 
	C115.029686,262.348419 125.149635,271.051208 136.739670,277.905304 
	C145.598511,283.144226 154.960373,287.525146 163.993607,292.478943 
	C170.616287,296.110840 177.036133,300.110657 183.610382,303.833527 
	C187.254868,305.897339 191.620377,307.078949 194.623276,309.802338 
	C200.660812,315.277924 211.413910,316.846069 218.282028,312.435944 
	C221.808868,310.171356 225.415054,308.013550 229.096039,306.010864 
	C232.294678,304.270691 235.721542,302.949890 238.919601,301.208740 
	C245.657288,297.540497 252.238129,293.580170 259.018616,289.995636 
	C266.698883,285.935486 274.701660,282.459534 282.227234,278.142242 
	C286.901794,275.460510 290.539246,270.773102 295.368622,268.601288 
	C304.695618,264.406860 309.245636,255.657028 315.112213,248.560577 
	C320.249451,242.346375 322.383667,233.649628 325.919617,225.238770 
	C325.960388,222.538055 326.001190,219.837357 326.461945,217.120346 
	C326.461945,217.120346 326.830750,216.918472 327.717133,216.761887 
	C327.808929,216.275116 327.980835,215.788361 327.981049,215.301559 
	C327.995941,180.807968 328.005951,146.314346 327.955231,111.820847 
	C327.953796,110.830742 327.296356,109.841599 326.669281,108.380142 
	C326.077454,108.001755 325.485596,107.623367 324.383362,106.788139 
	C323.239807,105.911026 322.096222,105.033905 320.461060,104.017113 
	C320.296021,103.973022 320.130981,103.928925 319.973267,103.015526 
z"/>
<path fill="#03599F" opacity="1.000000" stroke="none" 
	d="
M229.012360,24.845985 
	C234.042557,32.745132 243.739075,33.249687 250.440582,38.380306 
	C256.307709,42.872162 261.345673,48.433777 267.102753,53.086205 
	C273.336273,58.123646 274.984222,65.951218 279.362854,72.116859 
	C281.426361,75.022507 281.170319,79.481049 282.535675,83.015610 
	C283.244263,84.849953 284.907837,86.983673 286.641113,87.622414 
	C290.986328,89.223694 293.491852,92.169571 295.028442,97.028336 
	C295.361603,99.838371 295.712860,101.880409 296.355164,104.212799 
	C304.748352,104.387695 312.850525,104.272240 320.952667,104.156784 
	C322.096222,105.033905 323.239807,105.911026 324.649628,107.467743 
	C324.949127,131.302704 325.107025,154.458786 324.971252,177.613159 
	C324.882538,192.738251 324.331940,207.860352 324.123901,222.985657 
	C324.109955,223.998886 325.244232,225.027893 325.844452,226.049545 
	C322.383667,233.649628 320.249451,242.346375 315.112213,248.560577 
	C309.245636,255.657028 304.695618,264.406860 295.368622,268.601288 
	C290.539246,270.773102 286.901794,275.460510 282.227234,278.142242 
	C274.701660,282.459534 266.698883,285.935486 259.018616,289.995636 
	C252.238129,293.580170 245.657288,297.540497 238.919601,301.208740 
	C235.721542,302.949890 232.294678,304.270691 229.096039,306.010864 
	C225.415054,308.013550 221.808868,310.171356 218.282028,312.435944 
	C211.413910,316.846069 200.660812,315.277924 194.623276,309.802338 
	C191.620377,307.078949 187.254868,305.897339 183.610382,303.833527 
	C177.036133,300.110657 170.616287,296.110840 163.993607,292.478943 
	C154.960373,287.525146 145.598511,283.144226 136.739670,277.905304 
	C125.149635,271.051208 115.029686,262.348419 105.987122,252.269867 
	C97.112709,242.378784 94.273407,230.325516 92.351624,217.110809 
	C92.771935,209.882111 92.922546,203.421265 93.193207,196.867126 
	C93.475899,196.469345 93.396080,196.224655 93.041771,195.569595 
	C93.035080,167.717651 93.060417,140.335922 93.202530,112.862526 
	C93.478569,112.474869 93.402916,112.234589 93.051117,111.696106 
	C92.962708,110.869667 92.915512,110.397171 92.868317,109.924667 
	C93.191345,105.092941 96.569237,104.076721 100.496521,104.020554 
	C107.123672,103.925774 113.753159,103.994560 118.644341,103.994560 
	C121.581322,98.671928 123.029320,91.879501 126.398560,90.732994 
	C136.028046,87.456207 135.804932,79.306519 138.345871,72.306145 
	C142.961517,59.589924 150.418015,48.927002 161.629868,41.203026 
	C165.675278,38.416088 170.297745,36.476944 174.414093,33.780296 
	C179.496216,30.450966 184.325241,26.735296 189.632507,23.058964 
	C190.001373,22.931356 190.041443,23.022919 190.176346,23.391796 
	C193.470016,24.171650 196.631607,24.946712 199.787018,24.922367 
	C207.850983,24.860147 215.912186,24.441763 224.347229,24.101807 
	C226.150757,24.307173 227.581558,24.576580 229.012360,24.845985 
M173.385620,48.022114 
	C173.099792,48.301460 172.813980,48.580807 172.093628,49.356056 
	C168.211945,52.593540 163.628098,55.291683 160.623779,59.203060 
	C156.742126,64.256622 154.122589,70.279610 150.251404,76.205223 
	C149.849304,77.196487 149.284760,78.154205 149.071960,79.184563 
	C147.860367,85.051483 146.732697,90.935738 145.785431,96.684319 
	C145.785431,96.684319 145.628128,96.495239 145.150513,96.739853 
	C144.828201,97.155426 144.505890,97.570999 143.388596,98.175064 
	C140.270477,98.839310 137.152374,99.503555 133.320343,100.258636 
	C133.217255,101.180000 133.114151,102.101364 133.264587,103.772995 
	C134.614044,104.180359 135.963074,104.942116 137.313034,104.943817 
	C184.740509,105.003807 232.168137,105.011322 279.595428,104.901024 
	C281.043549,104.897667 282.488617,103.562401 283.915527,102.278305 
	C283.919220,101.899101 283.922882,101.519890 283.864014,100.387726 
	C282.612549,99.281143 281.525330,97.618553 280.073669,97.189774 
	C277.471436,96.421150 274.650024,96.394669 271.996277,96.011353 
	C271.996277,96.011353 271.941315,96.081696 271.974030,95.254425 
	C270.974487,91.840904 269.974945,88.427391 268.374725,84.553696 
	C264.318542,68.378448 255.731827,55.624550 240.403992,47.182133 
	C238.618866,46.370583 236.833755,45.559032 234.925446,44.243954 
	C234.287201,44.177296 233.648956,44.110638 233.014999,43.996204 
	C233.014999,43.996204 233.049820,44.029900 232.278854,44.228050 
	C231.864365,45.888565 231.124115,47.542385 231.089828,49.210712 
	C230.907547,58.078876 230.902267,66.950676 230.153778,75.973808 
	C228.748718,76.708862 227.343643,77.443916 225.211349,78.016998 
	C224.114838,77.700966 223.018341,77.384926 221.927017,76.220993 
	C221.617111,73.451729 221.075867,70.685463 221.039978,67.912651 
	C220.924652,59.004490 221.048477,50.093342 220.949921,41.184784 
	C220.930832,39.459675 220.324570,37.741066 219.481949,35.949921 
	C219.316635,35.992180 219.151306,36.034439 218.480606,35.953651 
	C218.315140,35.901909 218.149673,35.850166 218.167450,35.205818 
	C212.112900,35.138474 206.058350,35.071129 199.364334,35.006699 
	C198.586533,35.273628 197.808746,35.540558 196.526566,35.955280 
	C196.355850,35.994617 196.185135,36.033958 195.492935,35.896687 
	C194.997284,37.719761 194.117355,39.533749 194.073975,41.367516 
	C193.905777,48.480427 193.905457,55.601460 194.037750,62.715836 
	C194.123154,67.308510 194.548111,71.894875 194.734192,76.756645 
	C194.734192,76.756645 194.458939,76.834496 193.675186,76.465103 
	C190.841965,76.642647 188.008759,76.820190 184.936630,76.413071 
	C184.352753,75.625862 183.768890,74.838646 183.651413,73.356636 
	C183.761444,64.139038 183.904144,54.921524 183.926437,45.703712 
	C183.928467,44.863693 183.158112,44.021809 182.172165,43.440594 
	C180.707764,44.221188 179.243378,45.001781 177.890579,45.817696 
	C177.890579,45.817696 177.898956,45.700928 177.273682,45.807560 
	C176.779266,46.155128 176.284851,46.502701 175.917953,46.877918 
	C175.917953,46.877918 175.926804,46.747730 175.321899,46.882305 
	C174.843521,47.235046 174.365158,47.587788 173.968292,47.967937 
	C173.968292,47.967937 173.990326,47.884846 173.385620,48.022114 
M104.541458,117.528152 
	C104.361664,118.828224 104.026222,120.128143 104.024925,121.428391 
	C103.994888,151.510895 103.989624,181.593445 104.036339,211.675903 
	C104.038567,213.108307 104.560623,214.539871 105.200752,216.696289 
	C105.851524,219.169632 106.369576,221.687286 107.177628,224.108139 
	C109.728401,231.749969 113.619087,238.584732 118.113541,245.356720 
	C123.699547,253.773315 131.966064,258.319031 139.803467,263.588501 
	C145.639236,267.512115 152.004288,270.642365 158.079910,274.217224 
	C163.774002,277.567627 169.268539,281.278717 175.085083,284.393799 
	C182.170090,288.188202 190.498474,290.332642 196.485916,295.344757 
	C205.119568,302.572021 212.321838,300.623413 220.722137,295.974884 
	C235.252502,287.934082 250.069565,280.413086 264.709290,272.567566 
	C276.607422,266.191284 288.028625,259.181305 297.246979,249.012558 
	C306.333923,238.988754 312.567963,227.805786 313.777710,213.527039 
	C314.183960,211.976959 314.940704,210.427734 314.944519,208.876663 
	C315.015686,180.106400 315.025787,151.335815 314.918152,122.565781 
	C314.912384,121.029320 313.755371,119.497169 312.987396,117.569389 
	C312.987396,117.569389 312.977875,117.149345 312.410889,116.530296 
	C311.109070,116.350075 309.807281,116.012718 308.505402,116.012161 
	C242.207367,115.983795 175.909317,115.976189 109.611313,116.030388 
	C108.061813,116.031654 106.512901,116.762672 104.982742,116.951714 
	C104.982742,116.951714 105.184822,116.964554 104.541458,117.528152 
z"/>
<path fill="#003889" opacity="1.000000" stroke="none" 
	d="
M325.882019,225.644165 
	C325.244232,225.027893 324.109955,223.998886 324.123901,222.985657 
	C324.331940,207.860352 324.882538,192.738251 324.971252,177.613159 
	C325.107025,154.458786 324.949127,131.302704 324.904846,107.696159 
	C325.485596,107.623367 326.077454,108.001755 326.575989,108.724823 
	C326.350891,109.361588 326.219116,109.653671 326.054443,110.414665 
	C326.028351,146.301254 326.035156,181.718948 326.041992,217.136642 
	C326.001190,219.837357 325.960388,222.538055 325.882019,225.644165 
z"/>
<path fill="#FFFFFF" opacity="1.000000" stroke="none" 
	d="
M326.087341,109.945770 
	C326.219116,109.653671 326.350891,109.361588 326.713715,108.960754 
	C327.296356,109.841599 327.953796,110.830742 327.955231,111.820847 
	C328.005951,146.314346 327.995941,180.807968 327.981049,215.301559 
	C327.980835,215.788361 327.808929,216.275116 327.249664,216.378784 
	C326.852203,181.525406 326.928955,147.055161 326.954102,112.584877 
	C326.954742,111.705383 326.388947,110.825485 326.087341,109.945770 
z"/>
<path fill="#09589B" opacity="1.000000" stroke="none" 
	d="
M326.054413,110.414673 
	C326.388947,110.825485 326.954742,111.705383 326.954102,112.584877 
	C326.928955,147.055161 326.852203,181.525406 326.806458,216.457062 
	C326.830750,216.918472 326.461945,217.120346 326.251953,217.128494 
	C326.035156,181.718948 326.028351,146.301254 326.054413,110.414673 
z"/>
<path fill="#001A77" opacity="1.000000" stroke="none" 
	d="
M93.073158,196.960419 
	C92.922546,203.421265 92.771935,209.882111 92.399429,216.691956 
	C92.120964,188.002884 92.045273,158.964798 92.022568,129.926682 
	C92.017517,123.465607 92.198982,117.004387 92.581444,110.233948 
	C92.915512,110.397171 92.962708,110.869667 93.033302,111.921768 
	C93.056702,112.501358 93.085762,112.954185 93.085762,112.954185 
	C93.060417,140.335922 93.035080,167.717651 93.027092,195.799561 
	C93.044441,196.499710 93.073158,196.960419 93.073158,196.960419 
z"/>
<path fill="#FFFFFF" opacity="1.000000" stroke="none" 
	d="
M296.064117,103.922447 
	C295.712860,101.880409 295.361603,99.838371 295.081055,97.396103 
	C296.017365,98.369164 296.882965,99.742447 298.305878,101.999863 
	C303.280212,101.999863 309.463837,101.937363 315.644440,102.046165 
	C317.092621,102.071663 318.530609,102.676971 319.503357,103.500526 
	C311.377014,103.964500 303.720551,103.943474 296.064117,103.922447 
z"/>
<path fill="#FFFFFF" opacity="1.000000" stroke="none" 
	d="
M228.998352,24.446938 
	C227.581558,24.576580 226.150757,24.307173 223.969818,23.897051 
	C221.641251,23.506124 220.064163,23.049902 218.484131,23.039505 
	C209.003616,22.977110 199.522415,23.017179 190.041443,23.022919 
	C190.041443,23.022919 190.001373,22.931356 189.952271,22.939930 
	C191.063828,22.632296 192.222565,22.050024 193.385437,22.041624 
	C203.429611,21.969072 213.476517,21.898489 223.517487,22.092167 
	C225.351669,22.127546 227.162643,23.365211 228.998352,24.446938 
z"/>
<path fill="#00267E" opacity="1.000000" stroke="none" 
	d="
M296.355164,104.212799 
	C303.720551,103.943474 311.377014,103.964500 319.499695,103.935181 
	C320.130981,103.928925 320.296021,103.973022 320.706848,104.086945 
	C312.850525,104.272240 304.748352,104.387695 296.355164,104.212799 
z"/>
<path fill="#FBFCFC" opacity="1.000000" stroke="none" 
	d="
M312.977875,117.149345 
	C312.977875,117.149345 312.987396,117.569389 313.000061,118.236061 
	C313.060455,150.597687 313.108154,182.292648 313.155884,213.987610 
	C312.567963,227.805786 306.333923,238.988754 297.246979,249.012558 
	C288.028625,259.181305 276.607422,266.191284 264.709290,272.567566 
	C250.069565,280.413086 235.252502,287.934082 220.722137,295.974884 
	C212.321838,300.623413 205.119568,302.572021 196.485916,295.344757 
	C190.498474,290.332642 182.170090,288.188202 175.085083,284.393799 
	C169.268539,281.278717 163.774002,277.567627 158.079910,274.217224 
	C152.004288,270.642365 145.639236,267.512115 139.803467,263.588501 
	C131.966064,258.319031 123.699547,253.773315 118.113541,245.356720 
	C113.619087,238.584732 109.728401,231.749969 107.177628,224.108139 
	C106.369576,221.687286 105.851524,219.169632 105.123131,215.875366 
	C105.063759,214.227951 105.097244,213.401459 105.098045,212.574936 
	C105.128830,180.704803 105.156631,148.834686 105.184822,116.964554 
	C105.184822,116.964554 104.982742,116.951714 105.445404,116.995209 
	C150.816940,117.025330 195.725800,116.992935 240.634659,117.006256 
	C264.749054,117.013405 288.863464,117.099098 312.977875,117.149345 
M247.828979,224.102737 
	C247.601028,224.725433 247.373077,225.348129 246.876343,226.634918 
	C245.527771,227.567093 244.179199,228.499283 242.336578,229.581161 
	C241.767899,229.952591 241.199219,230.324020 240.841583,230.780960 
	C240.841583,230.780960 240.894180,230.559402 240.060471,230.774811 
	C233.194016,231.345871 226.327545,231.916916 219.330719,232.498810 
	C219.330719,240.064011 219.330719,247.900269 219.330719,255.994232 
	C222.464127,255.994232 225.268417,256.097748 228.062347,255.971542 
	C233.060455,255.745743 238.052338,255.381516 243.860931,255.002151 
	C251.643661,253.753601 258.698151,251.316696 264.482269,245.385941 
	C270.655518,239.056137 276.003021,232.588013 276.774353,222.803802 
	C277.131256,218.509186 277.778687,214.215790 277.796814,209.919754 
	C277.897400,186.119904 277.857758,162.319366 277.815247,138.519165 
	C277.812439,136.954895 277.386871,135.391357 276.396057,133.484558 
	C267.680206,133.484558 258.964355,133.484558 250.242401,133.484558 
	C250.242401,161.489746 250.242401,188.718903 250.057755,216.715286 
	C249.528229,218.865921 248.998703,221.016571 248.177628,223.340179 
	C248.177628,223.340179 248.144516,223.677567 247.828979,224.102737 
M205.424942,229.636597 
	C195.288193,229.420319 185.151428,229.204056 175.044571,228.470215 
	C174.991135,228.305878 174.937698,228.141541 174.985489,227.047607 
	C174.985489,195.891815 174.985489,164.736038 174.985489,133.654694 
	C166.437714,133.654694 158.466019,133.617172 150.495941,133.713745 
	C149.713867,133.723221 148.941803,134.556442 148.027283,135.934708 
	C148.016205,174.251007 147.995285,212.567307 148.035400,250.883545 
	C148.036789,252.209686 148.647781,253.535187 149.877518,255.156479 
	C167.690247,255.187134 185.503052,255.242096 203.315598,255.199005 
	C204.637512,255.195801 205.957718,254.488174 207.809326,253.442947 
	C207.566467,245.601196 207.323608,237.759430 206.689148,229.708221 
	C206.689148,229.708221 206.254761,229.796036 205.424942,229.636597 
z"/>
<path fill="#F7B038" opacity="1.000000" stroke="none" 
	d="
M134.034256,100.167801 
	C137.152374,99.503555 140.270477,98.839310 144.060349,97.993561 
	C145.030777,97.373123 145.329453,96.934181 145.628128,96.495239 
	C145.628128,96.495239 145.785431,96.684319 146.034256,96.591187 
	C147.841919,89.627083 149.400757,82.756119 150.959595,75.885155 
	C154.122589,70.279610 156.742126,64.256622 160.623779,59.203060 
	C163.628098,55.291683 168.211945,52.593540 172.604630,49.029327 
	C173.407196,48.430012 173.698761,48.157433 173.990326,47.884850 
	C173.990326,47.884846 173.968292,47.967937 174.246979,47.934402 
	C174.992706,47.516491 175.459747,47.132107 175.926804,46.747726 
	C175.926804,46.747730 175.917953,46.877918 176.184326,46.864899 
	C176.933456,46.468231 177.416199,46.084579 177.898956,45.700928 
	C177.898956,45.700928 177.890579,45.817696 178.253281,45.896114 
	C179.412674,47.511395 180.838150,49.024517 180.897232,50.589218 
	C181.152512,57.351448 180.654831,64.157188 181.196335,70.885513 
	C181.391388,73.309067 183.734436,75.559731 185.063538,77.900276 
	C185.029846,77.911255 185.031250,77.840401 185.156982,78.079620 
	C186.185394,78.581284 187.088104,78.843719 188.364349,79.078430 
	C190.644913,78.311974 192.551926,77.573235 194.458939,76.834503 
	C194.458939,76.834496 194.734192,76.756645 194.902863,76.498360 
	C195.175888,75.995636 195.360962,75.874435 195.968903,75.639526 
	C196.543945,73.626358 196.965164,71.851509 196.978195,70.073669 
	C197.047699,60.599689 196.930527,51.123417 197.103439,41.652058 
	C197.131302,40.125748 198.285217,37.311943 198.933441,37.307602 
	C205.324478,37.264809 211.718628,37.690010 218.083588,38.452347 
	C218.046295,49.037384 217.993835,59.152939 218.073929,69.267448 
	C218.086349,70.834961 218.705811,72.397675 219.067657,74.275940 
	C219.431900,75.088806 219.773056,75.588333 220.296738,76.279556 
	C220.960129,76.670456 221.440979,76.869675 221.921829,77.068893 
	C223.018341,77.384926 224.114838,77.700966 225.750153,78.405472 
	C227.924789,78.168808 229.560638,77.543671 231.363098,76.777023 
	C231.706558,76.400459 231.851440,76.147141 231.976166,75.927361 
	C231.987961,75.979172 231.883759,76.000038 232.132324,75.784927 
	C232.580292,75.181664 232.779694,74.793510 232.896957,74.349091 
	C232.814835,74.292824 232.912720,74.119469 233.202362,73.801483 
	C233.492004,64.660339 233.492004,55.837189 233.492004,46.613480 
	C236.518234,47.117043 238.568420,47.458191 240.618607,47.799343 
	C255.731827,55.624550 264.318542,68.378448 268.679657,85.215286 
	C269.970154,89.278488 270.955750,92.680092 271.941315,96.081696 
	C271.941315,96.081696 271.996277,96.011353 272.123718,96.367111 
	C275.517731,97.872330 278.784332,99.021790 281.907776,100.538017 
	C280.218872,101.265991 278.673553,101.940689 277.127289,101.942818 
	C230.963211,102.006363 184.799011,102.021095 138.635040,101.933258 
	C137.100327,101.930336 135.567795,100.782143 134.034256,100.167801 
z"/>
<path fill="#0246B2" opacity="1.000000" stroke="none" 
	d="
M283.935089,102.848091 
	C282.488617,103.562401 281.043549,104.897667 279.595428,104.901024 
	C232.168137,105.011322 184.740509,105.003807 137.313034,104.943817 
	C135.963074,104.942116 134.614044,104.180359 133.604950,103.407684 
	C144.244141,103.027039 154.542953,103.009743 164.841782,102.996704 
	C204.539551,102.946426 244.237320,102.897514 283.935089,102.848091 
z"/>
<path fill="#00267E" opacity="1.000000" stroke="none" 
	d="
M312.694397,116.839821 
	C288.863464,117.099098 264.749054,117.013405 240.634659,117.006256 
	C195.725800,116.992935 150.816940,117.025330 105.435898,117.096008 
	C106.512901,116.762672 108.061813,116.031654 109.611313,116.030388 
	C175.909317,115.976189 242.207367,115.983795 308.505402,116.012161 
	C309.807281,116.012718 311.109070,116.350075 312.694397,116.839821 
z"/>
<path fill="#014492" opacity="1.000000" stroke="none" 
	d="
M313.466797,213.757324 
	C313.108154,182.292648 313.060455,150.597687 313.073517,118.432877 
	C313.755371,119.497169 314.912384,121.029320 314.918152,122.565781 
	C315.025787,151.335815 315.015686,180.106400 314.944519,208.876663 
	C314.940704,210.427734 314.183960,211.976959 313.466797,213.757324 
z"/>
<path fill="#FCDA11" opacity="1.000000" stroke="none" 
	d="
M283.925293,102.563202 
	C244.237320,102.897514 204.539551,102.946426 164.841782,102.996704 
	C154.542953,103.009743 144.244141,103.027039 133.478180,103.032555 
	C133.114151,102.101364 133.217255,101.180000 133.677307,100.213219 
	C135.567795,100.782143 137.100327,101.930336 138.635040,101.933258 
	C184.799011,102.021095 230.963211,102.006363 277.127289,101.942818 
	C278.673553,101.940689 280.218872,101.265991 282.185974,100.523331 
	C283.047058,100.474808 283.486816,100.807747 283.926575,101.140686 
	C283.922882,101.519890 283.919220,101.899101 283.925293,102.563202 
z"/>
<path fill="#001671" opacity="1.000000" stroke="none" 
	d="
M104.863144,117.246353 
	C105.156631,148.834686 105.128830,180.704803 105.098045,212.574936 
	C105.097244,213.401459 105.063759,214.227951 104.943054,215.513153 
	C104.560623,214.539871 104.038567,213.108307 104.036339,211.675903 
	C103.989624,181.593445 103.994888,151.510895 104.024925,121.428391 
	C104.026222,120.128143 104.361664,118.828224 104.863144,117.246353 
z"/>
<path fill="#0749B0" opacity="1.000000" stroke="none" 
	d="
M195.626740,75.876465 
	C195.360962,75.874435 195.175888,75.995636 194.946228,76.362068 
	C194.548111,71.894875 194.123154,67.308510 194.037750,62.715836 
	C193.905457,55.601460 193.905777,48.480427 194.073975,41.367516 
	C194.117355,39.533749 194.997284,37.719761 195.730011,36.447876 
	C195.853638,49.958202 195.740189,62.917332 195.626740,75.876465 
z"/>
<path fill="#F3C425" opacity="1.000000" stroke="none" 
	d="
M185.097244,77.889297 
	C183.734436,75.559731 181.391388,73.309067 181.196335,70.885513 
	C180.654831,64.157188 181.152512,57.351448 180.897232,50.589218 
	C180.838150,49.024517 179.412674,47.511395 178.197479,45.878456 
	C179.243378,45.001781 180.707764,44.221188 182.542526,43.753510 
	C183.003601,54.061432 183.094299,64.056435 183.185013,74.051437 
	C183.768890,74.838646 184.352753,75.625862 184.990097,76.924278 
	C185.043564,77.435486 185.097244,77.889297 185.097244,77.889297 
z"/>
<path fill="#014492" opacity="1.000000" stroke="none" 
	d="
M190.176346,23.391796 
	C199.522415,23.017179 209.003616,22.977110 218.484131,23.039505 
	C220.064163,23.049902 221.641251,23.506124 223.597107,23.961090 
	C215.912186,24.441763 207.850983,24.860147 199.787018,24.922367 
	C196.631607,24.946712 193.470016,24.171650 190.176346,23.391796 
z"/>
<path fill="#FCDA11" opacity="1.000000" stroke="none" 
	d="
M195.968903,75.639526 
	C195.740189,62.917332 195.853638,49.958202 195.990753,36.536186 
	C196.185135,36.033958 196.355850,35.994617 197.144791,35.964035 
	C198.507309,35.922623 199.251602,35.872459 200.419342,35.889778 
	C202.554169,35.904175 204.265549,35.851086 206.434174,35.870903 
	C210.588989,35.895348 214.286606,35.846882 217.984207,35.798420 
	C218.149673,35.850166 218.315140,35.901909 218.759476,36.342422 
	C218.961426,37.161633 218.884491,37.592064 218.633667,38.012520 
	C218.459747,38.002537 218.111908,37.982525 218.111908,37.982525 
	C211.718628,37.690010 205.324478,37.264809 198.933441,37.307602 
	C198.285217,37.311943 197.131302,40.125748 197.103439,41.652058 
	C196.930527,51.123417 197.047699,60.599689 196.978195,70.073669 
	C196.965164,71.851509 196.543945,73.626358 195.968903,75.639526 
z"/>
<path fill="#24569C" opacity="1.000000" stroke="none" 
	d="
M232.912720,74.119469 
	C232.912720,74.119469 232.814835,74.292824 232.606506,74.523163 
	C232.226715,75.169014 232.055237,75.584526 231.883759,76.000038 
	C231.883759,76.000038 231.987961,75.979172 231.768860,75.992889 
	C231.549774,76.006615 231.132935,76.127411 231.057983,76.051483 
	C230.983032,75.975563 230.835709,75.821213 230.835709,75.821213 
	C230.902267,66.950676 230.907547,58.078876 231.089828,49.210712 
	C231.124115,47.542385 231.864365,45.888565 232.539444,44.581356 
	C232.837601,54.662930 232.875153,64.391197 232.912720,74.119469 
z"/>
<path fill="#0534C7" opacity="1.000000" stroke="none" 
	d="
M221.924423,76.644943 
	C221.440979,76.869675 220.960129,76.670456 220.366653,75.935303 
	C220.122452,74.951332 219.990875,74.503296 219.910522,73.769119 
	C219.888245,73.303665 219.814713,73.124359 219.758728,72.480347 
	C219.749695,65.366608 219.723083,58.717575 219.792572,51.786667 
	C219.826874,51.316113 219.765106,51.127438 219.747574,50.534111 
	C219.767960,48.774010 219.744095,47.418556 219.830124,45.714512 
	C219.853943,44.893787 219.767868,44.421654 219.709625,43.533066 
	C219.708588,41.449299 219.679703,39.781986 219.793243,37.783653 
	C219.953491,36.974911 219.971313,36.497185 219.989136,36.019459 
	C220.324570,37.741066 220.930832,39.459675 220.949921,41.184784 
	C221.048477,50.093342 220.924652,59.004490 221.039978,67.912651 
	C221.075867,70.685463 221.617111,73.451729 221.924423,76.644943 
z"/>
<path fill="#F7D417" opacity="1.000000" stroke="none" 
	d="
M233.202362,73.801483 
	C232.875153,64.391197 232.837601,54.662930 232.924927,44.482281 
	C233.049820,44.029900 233.014999,43.996204 233.285187,44.062813 
	C234.053131,44.335442 234.550888,44.541462 235.048630,44.747482 
	C236.833755,45.559032 238.618866,46.370583 240.511292,47.490738 
	C238.568420,47.458191 236.518234,47.117043 233.492004,46.613480 
	C233.492004,55.837189 233.492004,64.660339 233.202362,73.801483 
z"/>
<path fill="#0749B0" opacity="1.000000" stroke="none" 
	d="
M218.075836,35.502121 
	C214.286606,35.846882 210.588989,35.895348 206.122879,35.659355 
	C203.568329,35.248672 201.782272,35.122452 199.998108,34.998024 
	C200.000000,34.999817 200.003799,35.003788 200.003799,35.003784 
	C206.058350,35.071129 212.112900,35.138474 218.075836,35.502121 
z"/>
<path fill="#0534C7" opacity="1.000000" stroke="none" 
	d="
M183.418213,73.704041 
	C183.094299,64.056435 183.003601,54.061432 182.829651,43.623611 
	C183.158112,44.021809 183.928467,44.863693 183.926437,45.703712 
	C183.904144,54.921524 183.761444,64.139038 183.418213,73.704041 
z"/>
<path fill="#F7D417" opacity="1.000000" stroke="none" 
	d="
M150.605499,76.045189 
	C149.400757,82.756119 147.841919,89.627083 145.929779,96.656067 
	C146.732697,90.935738 147.860367,85.051483 149.071960,79.184563 
	C149.284760,78.154205 149.849304,77.196487 150.605499,76.045189 
z"/>
<path fill="#164BB0" opacity="1.000000" stroke="none" 
	d="
M283.895294,100.764206 
	C283.486816,100.807747 283.047058,100.474808 282.329102,100.156555 
	C278.784332,99.021790 275.517731,97.872330 272.085663,96.390442 
	C274.650024,96.394669 277.471436,96.421150 280.073669,97.189774 
	C281.525330,97.618553 282.612549,99.281143 283.895294,100.764206 
z"/>
<path fill="#164BB0" opacity="1.000000" stroke="none" 
	d="
M271.957672,95.668060 
	C270.955750,92.680092 269.970154,89.278488 268.979980,85.445381 
	C269.974945,88.427391 270.974487,91.840904 271.957672,95.668060 
z"/>
<path fill="#0749B0" opacity="1.000000" stroke="none" 
	d="
M185.063538,77.900276 
	C185.097244,77.889297 185.043564,77.435486 185.109558,77.216614 
	C188.008759,76.820190 190.841965,76.642647 194.067062,76.649803 
	C192.551926,77.573235 190.644913,78.311974 188.220551,78.761711 
	C186.812546,78.261940 185.921906,78.051170 185.031250,77.840393 
	C185.031250,77.840401 185.029846,77.911255 185.063538,77.900276 
z"/>
<path fill="#24569C" opacity="1.000000" stroke="none" 
	d="
M231.196487,76.918533 
	C229.560638,77.543671 227.924789,78.168808 226.113770,78.486465 
	C227.343643,77.443916 228.748718,76.708862 230.494751,75.897507 
	C230.835709,75.821213 230.983032,75.975563 231.033936,76.252487 
	C231.084854,76.529404 231.196487,76.918541 231.196487,76.918533 
z"/>
<path fill="#24569C" opacity="1.000000" stroke="none" 
	d="
M234.987030,44.495720 
	C234.550888,44.541462 234.053131,44.335442 233.283051,44.086700 
	C233.648956,44.110638 234.287201,44.177296 234.987030,44.495720 
z"/>
<path fill="#0749B0" opacity="1.000000" stroke="none" 
	d="
M199.995895,35.822292 
	C199.251602,35.872459 198.507309,35.922623 197.396973,35.890137 
	C197.808746,35.540558 198.586533,35.273628 199.684067,35.005241 
	C200.003799,35.003788 200.000000,34.999817 199.997162,35.204559 
	C199.994339,35.409306 199.995895,35.822292 199.995895,35.822292 
z"/>
<path fill="#F7D417" opacity="1.000000" stroke="none" 
	d="
M145.389313,96.617546 
	C145.329453,96.934181 145.030777,97.373123 144.457855,97.899323 
	C144.505890,97.570999 144.828201,97.155426 145.389313,96.617546 
z"/>
<path fill="#F3C425" opacity="1.000000" stroke="none" 
	d="
M177.586319,45.754242 
	C177.416199,46.084579 176.933456,46.468231 176.120575,46.851074 
	C176.284851,46.502701 176.779266,46.155128 177.586319,45.754242 
z"/>
<path fill="#F3C425" opacity="1.000000" stroke="none" 
	d="
M175.624359,46.815018 
	C175.459747,47.132107 174.992706,47.516491 174.206238,47.920700 
	C174.365158,47.587788 174.843521,47.235046 175.624359,46.815018 
z"/>
<path fill="#B9A34C" opacity="1.000000" stroke="none" 
	d="
M219.735535,35.984688 
	C219.971313,36.497185 219.953491,36.974911 219.578308,37.798492 
	C219.220932,38.144352 218.807571,38.022499 218.807571,38.022499 
	C218.884491,37.592064 218.961426,37.161633 219.012146,36.403950 
	C219.151306,36.034439 219.316635,35.992180 219.735535,35.984688 
z"/>
<path fill="#0265A6" opacity="1.000000" stroke="none" 
	d="
M93.193207,196.867126 
	C93.073158,196.960419 93.044441,196.499710 93.059120,196.269745 
	C93.396080,196.224655 93.475899,196.469345 93.193207,196.867126 
z"/>
<path fill="#0265A6" opacity="1.000000" stroke="none" 
	d="
M93.202530,112.862526 
	C93.085762,112.954185 93.056702,112.501358 93.074516,112.275696 
	C93.402916,112.234589 93.478569,112.474869 93.202530,112.862526 
z"/>
<path fill="#F3C425" opacity="1.000000" stroke="none" 
	d="
M173.687973,47.953484 
	C173.698761,48.157433 173.407196,48.430012 172.821899,48.781376 
	C172.813980,48.580807 173.099792,48.301460 173.687973,47.953484 
z"/>
<path fill="#025A9F" opacity="1.000000" stroke="none" 
	d="
M276.062103,223.199417 
	C276.003021,232.588013 270.655518,239.056137 264.482269,245.385941 
	C258.698151,251.316696 251.643661,253.753601 242.984329,255.020111 
	C237.955627,255.027084 233.803268,255.042206 229.651474,255.000076 
	C218.431870,254.886246 220.132614,256.368347 220.029633,245.634979 
	C219.909042,233.063919 219.977783,233.198456 232.844193,232.899094 
	C235.544205,232.836273 238.211700,231.375824 240.894180,230.559402 
	C240.894180,230.559402 240.841583,230.780960 241.037811,230.796326 
	C241.766220,230.351593 242.298416,229.891525 242.830612,229.431458 
	C244.179199,228.499283 245.527771,227.567093 247.317169,226.209564 
	C247.886826,225.081985 248.015686,224.379776 248.144531,223.677567 
	C248.144516,223.677567 248.177628,223.340179 248.658859,223.295349 
	C250.108383,221.139374 251.076675,219.028214 252.301361,216.603165 
	C252.669373,201.439026 252.791092,186.588806 252.854462,171.738342 
	C252.856918,171.163223 252.299026,170.585724 251.994537,169.660065 
	C252.001419,168.845261 252.015991,168.379730 252.286453,167.614471 
	C252.372330,163.905930 252.202316,160.497101 252.012695,156.671509 
	C252.006470,155.142456 252.019852,154.030197 252.223236,152.777023 
	C252.287186,152.118423 252.161102,151.600739 252.015167,150.666138 
	C252.008179,149.136612 252.021057,148.023972 252.291534,146.606293 
	C252.698914,145.159164 252.953308,144.019684 252.981354,142.874634 
	C253.149521,136.010910 253.134537,136.115463 259.734741,135.960510 
	C263.490906,135.872360 267.237457,135.374557 271.389465,135.030884 
	C272.862457,135.010788 273.934326,135.021057 275.002502,135.496246 
	C275.320374,141.609680 275.641907,147.258179 275.982422,153.305359 
	C275.987152,154.501877 275.972900,155.299713 275.699707,156.407867 
	C275.612762,163.779114 275.784821,170.840057 275.976929,178.300354 
	C275.984314,179.499039 275.971649,180.298386 275.699524,181.407776 
	C275.293396,188.089340 275.016022,194.461609 275.053192,200.832047 
	C275.072784,204.191162 275.641174,207.547089 275.977600,211.268982 
	C275.982880,212.119766 275.972351,212.606018 275.721802,213.346466 
	C275.629791,215.355499 275.777832,217.110336 275.955139,219.297562 
	C276.010284,220.886429 276.036194,222.042923 276.062103,223.199417 
z"/>
<path fill="#004090" opacity="1.000000" stroke="none" 
	d="
M148.974640,254.860992 
	C148.647781,253.535187 148.036789,252.209686 148.035400,250.883545 
	C147.995285,212.567307 148.016205,174.251007 148.406097,135.473053 
	C149.198059,135.020294 149.611237,135.029190 150.011597,135.502670 
	C149.986191,174.969101 149.973572,213.970932 149.787994,253.090851 
	C149.403458,253.390717 149.216537,253.595078 149.036713,254.081909 
	C149.004288,254.514908 148.989456,254.687958 148.974640,254.860992 
z"/>
<path fill="#24569C" opacity="1.000000" stroke="none" 
	d="
M276.418213,223.001617 
	C276.036194,222.042923 276.010284,220.886429 275.981140,218.889740 
	C275.972565,216.397141 275.967224,214.744705 275.961853,213.092285 
	C275.972351,212.606018 275.982880,212.119766 275.992920,210.811676 
	C275.981293,200.359131 275.970154,190.728424 275.958984,181.097717 
	C275.971649,180.298386 275.984314,179.499039 275.993225,177.843567 
	C275.979218,170.024139 275.968933,163.060852 275.958679,156.097565 
	C275.972900,155.299713 275.987152,154.501877 275.997742,152.848602 
	C276.003601,146.422852 276.013062,140.852509 276.226379,135.170258 
	C276.685791,134.837036 276.795624,134.558319 276.859589,134.123810 
	C276.959442,134.025452 277.157928,133.827484 277.157928,133.827484 
	C277.386871,135.391357 277.812439,136.954895 277.815247,138.519165 
	C277.857758,162.319366 277.897400,186.119904 277.796814,209.919754 
	C277.778687,214.215790 277.131256,218.509186 276.418213,223.001617 
z"/>
<path fill="#24569C" opacity="1.000000" stroke="none" 
	d="
M252.033936,146.911346 
	C252.021057,148.023972 252.008179,149.136612 252.001984,150.971252 
	C252.016846,152.101486 252.025040,152.509720 252.033234,152.917938 
	C252.019852,154.030197 252.006470,155.142456 251.998383,157.118469 
	C252.012634,161.292892 252.021591,164.603561 252.030563,167.914215 
	C252.015991,168.379730 252.001419,168.845261 251.979309,169.671326 
	C251.971771,170.031876 251.950317,170.063828 251.713684,170.307053 
	C251.628098,172.036835 251.779175,173.523376 251.945007,175.424896 
	C251.950684,177.223602 251.941589,178.607376 251.698090,180.280548 
	C251.620224,182.716461 251.776764,184.862946 251.947998,187.462524 
	C251.952652,190.940781 251.942612,193.965942 251.698227,197.280457 
	C251.618881,199.715698 251.773895,201.861572 251.943787,204.442337 
	C251.941269,206.898972 251.923904,208.920715 251.688385,211.203033 
	C251.060944,212.958435 250.651672,214.453247 250.242401,215.948059 
	C250.242401,188.718903 250.242401,161.489746 250.242401,133.484558 
	C258.964355,133.484558 267.680206,133.484558 276.776978,133.656021 
	C277.157928,133.827484 276.959442,134.025452 276.408844,134.128815 
	C269.432739,134.238312 263.006104,134.182419 256.582489,134.295670 
	C255.045105,134.322769 253.517654,134.913147 251.983643,135.689362 
	C251.999100,139.726639 252.016525,143.318985 252.033936,146.911346 
z"/>
<path fill="#03207A" opacity="1.000000" stroke="none" 
	d="
M150.024399,135.038055 
	C149.611237,135.029190 149.198059,135.020294 148.474991,135.009369 
	C148.941803,134.556442 149.713867,133.723221 150.495941,133.713745 
	C158.466019,133.617172 166.437714,133.654694 174.985489,133.654694 
	C174.985489,164.736038 174.985489,195.891815 174.731033,227.567230 
	C174.476578,228.086868 174.061295,228.163086 174.039886,227.677856 
	C174.006836,198.287292 173.903030,169.381409 174.081284,140.477249 
	C174.108521,136.060364 172.855576,134.635956 168.457733,134.898956 
	C162.332428,135.265259 156.170593,135.021011 150.024399,135.038055 
z"/>
<path fill="#02227B" opacity="1.000000" stroke="none" 
	d="
M240.477325,230.667114 
	C238.211700,231.375824 235.544205,232.836273 232.844193,232.899094 
	C219.977783,233.198456 219.909042,233.063919 220.029633,245.634979 
	C220.132614,256.368347 218.431870,254.886246 229.651474,255.000076 
	C233.803268,255.042206 237.955627,255.027084 242.577271,255.056610 
	C238.052338,255.381516 233.060455,255.745743 228.062347,255.971542 
	C225.268417,256.097748 222.464127,255.994232 219.330719,255.994232 
	C219.330719,247.900269 219.330719,240.064011 219.330719,232.498810 
	C226.327545,231.916916 233.194016,231.345871 240.477325,230.667114 
z"/>
<path fill="#001A77" opacity="1.000000" stroke="none" 
	d="
M149.426071,255.008728 
	C148.989456,254.687958 149.004288,254.514908 149.496918,254.132721 
	C156.963852,253.927063 163.952957,253.930511 171.352386,253.965729 
	C172.859085,253.977661 173.955475,253.957870 175.514832,253.961441 
	C185.981186,253.900970 195.984589,253.817139 206.315369,253.810852 
	C206.854736,253.961609 207.066727,254.034821 207.278702,254.108032 
	C205.957718,254.488174 204.637512,255.195801 203.315598,255.199005 
	C185.503052,255.242096 167.690247,255.187134 149.426071,255.008728 
z"/>
<path fill="#24569C" opacity="1.000000" stroke="none" 
	d="
M207.544006,253.775482 
	C207.066727,254.034821 206.854736,253.961609 206.318939,253.367615 
	C205.996246,245.650101 205.997345,238.453369 206.256439,231.105011 
	C206.703186,230.608154 206.891968,230.262909 207.080750,229.917679 
	C207.323608,237.759430 207.566467,245.601196 207.544006,253.775482 
z"/>
<path fill="#24569C" opacity="1.000000" stroke="none" 
	d="
M175.014679,228.987778 
	C185.151428,229.204056 195.288193,229.420319 205.377655,229.877014 
	C202.205170,230.159637 199.078415,230.153458 195.955078,230.254044 
	C189.265213,230.469513 182.577148,230.740158 175.696259,230.991516 
	C175.504181,230.994812 175.117218,230.996185 175.070282,230.687378 
	C174.939377,229.971054 174.855408,229.563507 174.832382,229.114105 
	C174.893311,229.072220 175.014679,228.987778 175.014679,228.987778 
z"/>
<path fill="#001A77" opacity="1.000000" stroke="none" 
	d="
M175.888336,230.988220 
	C182.577148,230.740158 189.265213,230.469513 195.955078,230.254044 
	C199.078415,230.153458 202.205170,230.159637 205.792572,229.956726 
	C206.254761,229.796036 206.689148,229.708221 206.884949,229.812958 
	C206.891968,230.262909 206.703186,230.608154 205.793701,231.013153 
	C195.344757,231.044693 185.616547,231.016449 175.888336,230.988220 
z"/>
<path fill="#195299" opacity="1.000000" stroke="none" 
	d="
M250.150085,216.331665 
	C250.651672,214.453247 251.060944,212.958435 251.723755,211.633545 
	C251.999863,213.507996 252.022400,215.212524 252.044952,216.917053 
	C251.076675,219.028214 250.108383,221.139374 248.804642,223.208862 
	C248.998703,221.016571 249.528229,218.865921 250.150085,216.331665 
z"/>
<path fill="#195299" opacity="1.000000" stroke="none" 
	d="
M247.986755,223.890152 
	C248.015686,224.379776 247.886826,225.081985 247.451569,225.877502 
	C247.373077,225.348129 247.601028,224.725433 247.986755,223.890152 
z"/>
<path fill="#02227B" opacity="1.000000" stroke="none" 
	d="
M242.583588,229.506317 
	C242.298416,229.891525 241.766220,230.351593 240.932281,230.753571 
	C241.199219,230.324020 241.767899,229.952591 242.583588,229.506317 
z"/>
<path fill="#24569C" opacity="1.000000" stroke="none" 
	d="
M174.061295,228.163086 
	C174.061295,228.163086 174.476578,228.086868 174.680420,228.032043 
	C174.937698,228.141541 174.991135,228.305878 175.029633,228.729004 
	C175.014679,228.987778 174.893311,229.072220 174.707642,228.951843 
	C174.350098,228.621292 174.196533,228.398499 174.061295,228.163086 
z"/>
<path fill="#F7D417" opacity="1.000000" stroke="none" 
	d="
M218.633667,38.012520 
	C218.807571,38.022499 219.220932,38.144352 219.435883,38.129513 
	C219.679703,39.781986 219.708588,41.449299 219.536682,43.709045 
	C219.464020,44.888687 219.592117,45.475895 219.720215,46.063103 
	C219.744095,47.418556 219.767960,48.774010 219.593445,50.637939 
	C219.358734,51.264740 219.259109,51.413429 219.298447,51.495434 
	C219.397797,51.702469 219.559662,51.879494 219.696472,52.068542 
	C219.723083,58.717575 219.749695,65.366608 219.598740,72.605316 
	C219.273727,73.423523 219.163254,73.668716 219.078278,73.939331 
	C219.066788,73.948090 219.044556,73.962608 219.044556,73.962608 
	C218.705811,72.397675 218.086349,70.834961 218.073929,69.267448 
	C217.993835,59.152939 218.046295,49.037384 218.083588,38.452347 
	C218.111908,37.982525 218.459747,38.002537 218.633667,38.012520 
z"/>
<path fill="#F3C425" opacity="1.000000" stroke="none" 
	d="
M185.156982,78.079620 
	C185.921906,78.051170 186.812546,78.261940 187.847000,78.789429 
	C187.088104,78.843719 186.185394,78.581284 185.156982,78.079620 
z"/>
<path fill="#F7D417" opacity="1.000000" stroke="none" 
	d="
M219.859283,74.055260 
	C219.990875,74.503296 220.122452,74.951332 220.184113,75.743622 
	C219.773056,75.588333 219.431900,75.088806 219.067657,74.275940 
	C219.044556,73.962608 219.066788,73.948090 219.271515,73.962448 
	C219.476257,73.976799 219.859283,74.055260 219.859283,74.055260 
z"/>
<path fill="#F7D417" opacity="1.000000" stroke="none" 
	d="
M231.363098,76.777023 
	C231.196487,76.918541 231.084854,76.529404 231.108887,76.328407 
	C231.132935,76.127411 231.549774,76.006615 231.757080,75.941086 
	C231.851440,76.147141 231.706558,76.400459 231.363098,76.777023 
z"/>
<path fill="#F7D417" opacity="1.000000" stroke="none" 
	d="
M232.132324,75.784927 
	C232.055237,75.584526 232.226715,75.169014 232.688629,74.579422 
	C232.779694,74.793510 232.580292,75.181664 232.132324,75.784927 
z"/>
<path fill="#03599F" opacity="1.000000" stroke="none" 
	d="
M200.419342,35.889778 
	C199.995895,35.822292 199.994339,35.409306 199.995285,35.202766 
	C201.782272,35.122452 203.568329,35.248672 205.665649,35.586445 
	C204.265549,35.851086 202.554169,35.904175 200.419342,35.889778 
z"/>
<path fill="#B9A34C" opacity="1.000000" stroke="none" 
	d="
M219.830109,45.714512 
	C219.592117,45.475895 219.464020,44.888687 219.508850,44.125496 
	C219.767868,44.421654 219.853943,44.893787 219.830109,45.714512 
z"/>
<path fill="#B9A34C" opacity="1.000000" stroke="none" 
	d="
M219.910522,73.769119 
	C219.859283,74.055260 219.476257,73.976799 219.283020,73.953690 
	C219.163254,73.668716 219.273727,73.423523 219.581177,73.070023 
	C219.814713,73.124359 219.888245,73.303665 219.910522,73.769119 
z"/>
<path fill="#B9A34C" opacity="1.000000" stroke="none" 
	d="
M219.792572,51.786667 
	C219.559662,51.879494 219.397797,51.702469 219.298447,51.495434 
	C219.259109,51.413429 219.358734,51.264740 219.549194,51.042587 
	C219.765106,51.127438 219.826874,51.316113 219.792572,51.786667 
z"/>
<path fill="#0664A5" opacity="1.000000" stroke="none" 
	d="
M252.301361,216.603149 
	C252.022400,215.212524 251.999863,213.507996 251.941925,211.372986 
	C251.923904,208.920715 251.941269,206.898972 251.971252,204.004791 
	C251.966766,201.085281 251.949677,199.038208 251.932587,196.991119 
	C251.942612,193.965942 251.952652,190.940781 251.974426,187.024643 
	C251.968277,184.086166 251.950378,182.038651 251.932495,179.991135 
	C251.941589,178.607376 251.950684,177.223602 251.971222,175.012207 
	C251.971909,172.811005 251.961105,171.437408 251.950317,170.063828 
	C251.950317,170.063828 251.971771,170.031876 251.987015,170.020599 
	C252.299026,170.585724 252.856918,171.163223 252.854462,171.738342 
	C252.791092,186.588806 252.669373,201.439026 252.301361,216.603149 
z"/>
<path fill="#0664A5" opacity="1.000000" stroke="none" 
	d="
M252.291519,146.606293 
	C252.016525,143.318985 251.999100,139.726639 252.447113,135.593506 
	C258.937836,135.055557 264.963074,135.058395 270.988342,135.061234 
	C267.237457,135.374557 263.490906,135.872360 259.734741,135.960510 
	C253.134537,136.115463 253.149521,136.010910 252.981354,142.874634 
	C252.953308,144.019684 252.698914,145.159164 252.291519,146.606293 
z"/>
<path fill="#0664A5" opacity="1.000000" stroke="none" 
	d="
M275.699524,181.407776 
	C275.970154,190.728424 275.981293,200.359131 275.977112,210.447144 
	C275.641174,207.547089 275.072784,204.191162 275.053192,200.832047 
	C275.016022,194.461609 275.293396,188.089340 275.699524,181.407776 
z"/>
<path fill="#001A77" opacity="1.000000" stroke="none" 
	d="
M271.389465,135.030884 
	C264.963074,135.058395 258.937836,135.055557 252.449097,135.148590 
	C253.517654,134.913147 255.045105,134.322769 256.582489,134.295670 
	C263.006104,134.182419 269.432739,134.238312 276.308990,134.227188 
	C276.795624,134.558319 276.685791,134.837036 275.980957,135.069641 
	C275.356506,135.064392 275.181335,135.047852 275.006165,135.031326 
	C273.934326,135.021057 272.862457,135.010788 271.389465,135.030884 
z"/>
<path fill="#0664A5" opacity="1.000000" stroke="none" 
	d="
M275.699707,156.407867 
	C275.968933,163.060852 275.979218,170.024139 275.973206,177.444214 
	C275.784821,170.840057 275.612762,163.779114 275.699707,156.407867 
z"/>
<path fill="#0664A5" opacity="1.000000" stroke="none" 
	d="
M275.002502,135.496246 
	C275.181335,135.047852 275.356506,135.064392 275.777100,135.181549 
	C276.013062,140.852509 276.003601,146.422852 275.978790,152.449921 
	C275.641907,147.258179 275.320374,141.609680 275.002502,135.496246 
z"/>
<path fill="#0664A5" opacity="1.000000" stroke="none" 
	d="
M252.286453,167.614471 
	C252.021591,164.603561 252.012634,161.292892 252.017975,157.535263 
	C252.202316,160.497101 252.372330,163.905930 252.286453,167.614471 
z"/>
<path fill="#0664A5" opacity="1.000000" stroke="none" 
	d="
M275.721802,213.346466 
	C275.967224,214.744705 275.972565,216.397141 275.951904,218.457367 
	C275.777832,217.110336 275.629791,215.355499 275.721802,213.346466 
z"/>
<path fill="#0664A5" opacity="1.000000" stroke="none" 
	d="
M252.223236,152.777023 
	C252.025040,152.509720 252.016846,152.101486 252.021835,151.388153 
	C252.161102,151.600739 252.287186,152.118423 252.223236,152.777023 
z"/>
<path fill="#025A9F" opacity="1.000000" stroke="none" 
	d="
M174.039886,227.677856 
	C174.196533,228.398499 174.350098,228.621292 174.646698,228.993713 
	C174.855408,229.563507 174.939377,229.971054 175.368179,230.959900 
	C182.337021,231.694229 188.960388,231.890045 195.585205,231.990448 
	C206.216812,232.151596 204.936615,230.693237 204.987961,241.168793 
	C205.045959,253.000748 205.000412,252.899460 193.264130,253.043045 
	C187.190643,253.117355 181.122452,253.625778 175.051880,253.938080 
	C173.955475,253.957870 172.859085,253.977661 171.031250,253.716537 
	C163.520187,253.281326 156.740585,253.127045 149.960968,252.972763 
	C149.973572,213.970932 149.986191,174.969101 150.011597,135.502655 
	C156.170593,135.021011 162.332428,135.265259 168.457733,134.898956 
	C172.855576,134.635956 174.108521,136.060364 174.081284,140.477249 
	C173.903030,169.381409 174.006836,198.287292 174.039886,227.677856 
z"/>
<path fill="#0767A7" opacity="1.000000" stroke="none" 
	d="
M149.787994,253.090851 
	C156.740585,253.127045 163.520187,253.281326 170.620941,253.684784 
	C163.952957,253.930511 156.963852,253.927063 149.514511,253.872803 
	C149.216537,253.595078 149.403458,253.390717 149.787994,253.090851 
z"/>
<path fill="#195299" opacity="1.000000" stroke="none" 
	d="
M251.698227,197.280457 
	C251.949677,199.038208 251.966766,201.085281 251.956390,203.569916 
	C251.773895,201.861572 251.618881,199.715698 251.698227,197.280457 
z"/>
<path fill="#195299" opacity="1.000000" stroke="none" 
	d="
M251.698090,180.280548 
	C251.950378,182.038651 251.968277,184.086166 251.959747,186.571564 
	C251.776764,184.862946 251.620224,182.716461 251.698090,180.280548 
z"/>
<path fill="#195299" opacity="1.000000" stroke="none" 
	d="
M251.713669,170.307053 
	C251.961105,171.437408 251.971909,172.811005 251.956482,174.597260 
	C251.779175,173.523376 251.628098,172.036835 251.713669,170.307053 
z"/>
<path fill="#0767A7" opacity="1.000000" stroke="none" 
	d="
M175.514832,253.961441 
	C181.122452,253.625778 187.190643,253.117355 193.264130,253.043045 
	C205.000412,252.899460 205.045959,253.000748 204.987961,241.168793 
	C204.936615,230.693237 206.216812,232.151596 195.585205,231.990448 
	C188.960388,231.890045 182.337021,231.694229 175.415115,231.268707 
	C175.117218,230.996185 175.504181,230.994812 175.696259,230.991516 
	C185.616547,231.016449 195.344757,231.044693 205.535706,231.164780 
	C205.997345,238.453369 205.996246,245.650101 205.991562,253.290070 
	C195.984589,253.817139 185.981186,253.900970 175.514832,253.961441 
z"/>
</svg>